<?xml version="1.0" encoding="utf-8"?><svg xmlns="http://www.w3.org/2000/svg" xmlns:xlink="http://www.w3.org/1999/xlink"><symbol viewBox="0 0 24 24" id="arrow_down" xmlns="http://www.w3.org/2000/svg"><path d="M7.41 8.29688L12 12.8769L16.59 8.29688L18 9.70687L12 15.7069L6 9.70687L7.41 8.29688Z"/></symbol><symbol viewBox="0 0 24 24" id="bag" xmlns="http://www.w3.org/2000/svg"><desc>Created with Pixso.</desc><defs><clipPath id="bclip2_1208"><rect rx="0.000000" width="23.000000" height="23.000000" transform="translate(0.500000 0.500000)" fill-opacity="0"/></clipPath></defs><rect rx="0.000000" width="23.000000" height="23.000000" transform="translate(0.500000 0.500000)" fill-opacity="0"/><g clip-path="url(#bclip2_1208)"><path d="M18 6L16 6C16 3.78 14.21 2 12 2C9.79 2 8 3.78 8 6L6 6C4.9 6 4 6.89 4 8L4 20C4 21.1 4.9 22 6 22L18 22C19.09 22 20 21.1 20 20L20 8C20 6.89 19.09 6 18 6ZM12 4C13.09 4 14 4.89 14 6L10 6C10 4.89 10.9 4 12 4ZM18 20L6 20L6 8L8 8L8 10C8 10.55 8.45 11 9 11C9.54 11 10 10.55 10 10L10 8L14 8L14 10C14 10.55 14.45 11 15 11C15.54 11 16 10.55 16 10L16 8L18 8L18 20Z" fill-opacity="1.000000" fill-rule="nonzero"/></g></symbol><symbol viewBox="0 0 25 24" id="close" xmlns="http://www.w3.org/2000/svg"><path d="M19.5 6.41L18.09 5L12.5 10.59L6.91 5L5.5 6.41L11.09 12L5.5 17.59L6.91 19L12.5 13.41L18.09 19L19.5 17.59L13.91 12L19.5 6.41Z"/></symbol><symbol viewBox="0 0 20 20" id="favorite" xmlns="http://www.w3.org/2000/svg"><path d="M9.22318 17.1147L9.22174 17.1134C6.62662 14.7602 4.55384 12.878 3.1178 11.1223C1.69324 9.38069 1 7.88574 1 6.32422C1 3.7965 2.97228 1.82422 5.5 1.82422C6.93721 1.82422 8.33224 2.49815 9.23865 3.56256L10 4.45662L10.7614 3.56256C11.6678 2.49815 13.0628 1.82422 14.5 1.82422C17.0277 1.82422 19 3.7965 19 6.32422C19 7.88575 18.3068 9.38075 16.882 11.1239C15.4459 12.8808 13.3734 14.7651 10.7786 17.1232C10.7782 17.1235 10.7778 17.1238 10.7775 17.1241L10.0026 17.8242L9.22318 17.1147Z" stroke-width="2"/></symbol><symbol viewBox="0 0 25 24" id="menu" xmlns="http://www.w3.org/2000/svg"><path d="M3.5 18H21.5V16H3.5V18ZM3.5 13H21.5V11H3.5V13ZM3.5 6V8H21.5V6H3.5Z"/></symbol><symbol viewBox="0 0 24 24" id="person" xmlns="http://www.w3.org/2000/svg"><desc>Created with Pixso.</desc><defs><clipPath id="fclip2_1202"><rect rx="0.000000" width="23.000000" height="23.000000" transform="translate(0.500000 0.500000)" fill-opacity="0"/></clipPath></defs><rect rx="0.000000" width="23.000000" height="23.000000" transform="translate(0.500000 0.500000)" fill-opacity="0"/><g clip-path="url(#fclip2_1202)"><path d="M16 8.5C16 10.71 14.21 12.5 12 12.5C9.79 12.5 8 10.71 8 8.5L8 5C8 4.17 8.66 3.5 9.5 3.5C10.01 3.5 10.48 3.76 10.75 4.17C11.01 3.76 11.48 3.5 12 3.5C12.51 3.5 12.98 3.76 13.25 4.17C13.51 3.76 13.98 3.5 14.5 3.5C15.33 3.5 16 4.17 16 5L16 8.5ZM14 8.5L14 6L10 6L10 8.5C10 9.6 10.9 10.5 12 10.5C13.09 10.5 14 9.6 14 8.5ZM12 13.5C14.53 13.5 16.7 14.19 18.38 15.05C19.38 15.57 20 16.6 20 17.71L20 20.5L4 20.5L4 17.71C4 16.6 4.61 15.57 5.61 15.05C7.29 14.19 9.46 13.5 12 13.5ZM6 17.71L6 18.5L18 18.5L18 17.71C18 17.33 17.79 17 17.48 16.83C16.29 16.23 14.37 15.5 12 15.5C9.62 15.5 7.7 16.23 6.51 16.83C6.2 17 6 17.33 6 17.71Z" fill-opacity="1.000000" fill-rule="evenodd"/></g></symbol><symbol viewBox="0 0 24 24" id="search" xmlns="http://www.w3.org/2000/svg"><desc>Created with Pixso.</desc><defs><clipPath id="gclip2_1199"><rect rx="0.000000" width="23.000000" height="23.000000" transform="translate(0.500000 0.500000)" fill-opacity="0"/></clipPath></defs><rect rx="0.000000" width="23.000000" height="23.000000" transform="translate(0.500000 0.500000)" fill-opacity="0"/><g clip-path="url(#gclip2_1199)"><path d="M15.75 14.25L14.96 14.25L14.68 13.98C15.66 12.84 16.25 11.36 16.25 9.75C16.25 6.16 13.34 3.25 9.75 3.25C6.16 3.25 3.25 6.16 3.25 9.75C3.25 13.34 6.16 16.25 9.75 16.25C11.36 16.25 12.84 15.66 13.98 14.68L14.25 14.96L14.25 15.75L19.25 20.74L20.74 19.25L15.75 14.25ZM9.75 14.25C7.26 14.25 5.25 12.24 5.25 9.75C5.25 7.26 7.26 5.25 9.75 5.25C12.24 5.25 14.25 7.26 14.25 9.75C14.25 12.24 12.24 14.25 9.75 14.25Z" fill-opacity="1.000000" fill-rule="nonzero"/></g></symbol></svg>